<?xml version="1.0" standalone="no"?><!DOCTYPE svg PUBLIC "-//W3C//DTD SVG 1.1//EN" "http://www.w3.org/Graphics/SVG/1.1/DTD/svg11.dtd"><svg t="1721154240086" class="icon" viewBox="0 0 1024 1024" version="1.1" xmlns="http://www.w3.org/2000/svg" p-id="16376" xmlns:xlink="http://www.w3.org/1999/xlink" width="200" height="200"><path d="M512 512m-512 0a512 512 0 1 0 1024 0 512 512 0 1 0-1024 0Z" fill="#1890FF" p-id="16377"></path><path d="M519.84 225.12l232.224 58.336c11.36 2.848 11.68 18.88 0.448 22.208l-232.256 68a11.52 11.52 0 0 1-6.432 0L281.568 305.664c-11.2-3.296-10.88-19.328 0.448-22.208l232.16-58.336a11.872 11.872 0 0 1 5.664 0z m20.192 200.384c0-10.24 6.752-19.2 16.576-22.08l229.984-67.616a23.008 23.008 0 0 1 29.44 22.08v355.808c0 9.92-6.336 18.72-15.712 21.856l-230.016 76.352a23.008 23.008 0 0 1-30.272-21.856V425.504zM218.048 358.08a23.008 23.008 0 0 1 29.44-22.08l230.08 67.072c9.824 2.88 16.576 11.84 16.576 22.08v364.8a23.008 23.008 0 0 1-30.272 21.856l-230.08-76.672a23.008 23.008 0 0 1-15.744-21.792V358.08z" fill="#FFFFFF" p-id="16378"></path></svg>