<?xml version="1.0" standalone="no"?><!DOCTYPE svg PUBLIC "-//W3C//DTD SVG 1.1//EN" "http://www.w3.org/Graphics/SVG/1.1/DTD/svg11.dtd"><svg t="1756460697059" class="icon" viewBox="0 0 1024 1024" version="1.1" xmlns="http://www.w3.org/2000/svg" p-id="4460" xmlns:xlink="http://www.w3.org/1999/xlink" width="300" height="300"><path d="M127.84 714.08a30.72 30.72 0 0 1 30.304 25.76l0.416 4.96-0.032 122.88h122.88a30.72 30.72 0 0 1 30.336 25.76l0.416 4.96a30.72 30.72 0 0 1-25.728 30.336l-4.992 0.384h-153.6a30.72 30.72 0 0 1-30.304-25.728l-0.416-4.992v-153.6c0-16.96 13.76-30.72 30.72-30.72z m768 0a30.72 30.72 0 0 1 30.304 25.76l0.416 4.96v153.6a30.72 30.72 0 0 1-25.728 30.336l-4.992 0.384h-153.6a30.72 30.72 0 0 1-4.992-61.024l4.992-0.416h122.848v-122.88a30.72 30.72 0 0 1 25.76-30.304l4.992-0.416z m-264.384-243.04c8-0.352 15.808 2.56 21.696 8.064a30.944 30.944 0 0 1 9.728 21.344 526.4 526.4 0 0 1-96.224 326.368 29.984 29.984 0 0 1-52.16-5.28 31.168 31.168 0 0 1 3.2-30.656 464.224 464.224 0 0 0 84.864-287.872 30.496 30.496 0 0 1 28.896-31.968z m-119.456 0c16.64 0 30.176 13.76 30.176 30.72 0 113.664-49.632 275.296-134.144 332.64a29.76 29.76 0 0 1-30.144 1.984 30.72 30.72 0 0 1-16.736-25.568 30.88 30.88 0 0 1 13.376-27.52c63.232-42.88 107.296-186.432 107.296-281.568 0-16.96 13.504-30.72 30.176-30.72z m0-245.696c150.016 0 271.648 123.744 271.648 276.384 0 26.656-0.704 46.432-3.488 72.864a497.28 497.28 0 0 1-24.608 113.184c-9.312 27.008-21.856 52.8-37.344 76.672a29.856 29.856 0 0 1-41.856 8.512 31.04 31.04 0 0 1-8.384-42.56c12.768-19.776 23.072-40.992 30.752-63.296 19.264-54.784 24.544-105.184 24.544-165.376 0-118.72-94.56-214.944-211.232-214.976-23.776 0-47.36 4.064-69.824 11.968l-9.568 3.648a29.76 29.76 0 0 1-30.4-3.84 30.976 30.976 0 0 1 8-53.184A270.24 270.24 0 0 1 512 225.344z m-0.192 122.816a145.728 145.728 0 0 1 75.872 20.864 31.04 31.04 0 0 1 9.664 41.44 29.888 29.888 0 0 1-40.32 11.424A86.24 86.24 0 0 0 512 409.6c-47.936 0-87.584 38.016-90.4 86.72l-0.16 5.44c0 62.144-33.248 179.072-63.808 210.912a29.792 29.792 0 0 1-41.28 1.856 31.104 31.104 0 0 1-4.384-41.824l2.496-2.944c7.168-7.488 16.256-28.864 24.48-54.784l4.384-14.528c2.112-7.456 4.16-15.104 6.048-22.752l3.52-15.328 3.04-15.04c2.752-14.784 4.576-28.672 5.024-40.096l0.128-5.504c0-84.8 67.584-153.568 150.72-153.568z m-158.56-31.776a28.8 28.8 0 0 1-0.8 40.704c-26.016 24.992-42.464 57.824-49.408 99.424l-2.112 13.056-2.144 15.744-2.688 25.056-2.688 26.88-1.28 10.464-0.64 4.928a289.536 289.536 0 0 1-15.296 59.872 28.8 28.8 0 1 1-54.08-19.712c6.336-17.472 9.92-31.968 12.352-48.48l0.96-7.232 1.952-18.272 3.2-31.616 2.144-17.728 1.92-12.8 1.6-9.664c8.928-53.44 31.04-97.568 66.304-131.424a28.8 28.8 0 0 1 40.704 0.8z m542.592-216.704a30.72 30.72 0 0 1 30.304 25.76l0.416 4.96v153.6a30.72 30.72 0 0 1-61.024 4.992l-0.416-4.992-0.032-122.88h-122.88a30.72 30.72 0 0 1-30.272-25.728l-0.416-4.992a30.72 30.72 0 0 1 25.728-30.304l4.992-0.416h153.6z m-614.4 0a30.72 30.72 0 0 1 4.992 61.056l-4.992 0.384H158.528v122.88a30.72 30.72 0 0 1-25.696 30.336l-4.992 0.384a30.72 30.72 0 0 1-30.304-25.728l-0.416-4.992v-153.6a30.72 30.72 0 0 1 25.728-30.304l4.992-0.416h153.6z" fill="#FF6F00" p-id="4461"></path></svg>